<svg id="svg-chimera-chip" xmlns:rdf="http://www.w3.org/1999/02/22-rdf-syntax-ns#" xmlns="http://www.w3.org/2000/svg" xml:space="preserve" viewBox="0 0 591.98296 611.99901" height="612" width="591.98" version="1.1" y="0px" x="0px" xmlns:cc="http://creativecommons.org/ns#" xmlns:dc="http://purl.org/dc/elements/1.1/"><metadata id="metadata11"><rdf:RDF><cc:Work rdf:about=""><dc:format>image/svg+xml</dc:format><dc:type rdf:resource="http://purl.org/dc/dcmitype/StillImage"/><dc:title/></cc:Work></rdf:RDF></metadata>
	<path id="path3" d="m394.19 143.79h-196.4c-30.857 0-55.874 25.018-55.874 55.885v212.64c0 30.865 25.018 55.886 55.874 55.886h196.4c30.86 0 55.874-25.019 55.874-55.886v-212.64c0-30.867-25.016-55.885-55.876-55.885z"/>
	<path id="path5" d="m568.49 329.49c12.974 0 23.491-10.517 23.491-23.491s-10.517-23.491-23.491-23.491h-53.624v-53.075h53.624c12.974 0 23.491-10.517 23.491-23.491s-10.517-23.491-23.491-23.491h-54.1c-4.6-51.94-44.11-93.974-94.86-102.42v-56.545c0-12.978-10.51-23.495-23.49-23.495-12.97 0-23.49 10.517-23.49 23.491v54.969h-53.072v-54.969c0-12.974-10.52-23.491-23.49-23.491s-23.49 10.517-23.49 23.491v54.969h-53.07v-54.969c0-12.974-10.52-23.491-23.49-23.491-12.98 0-23.5 10.517-23.5 23.491v56.544c-50.749 8.45-90.262 50.482-94.856 102.42h-54.098c-12.969-0.01-23.486 10.51-23.486 23.48 0 12.974 10.517 23.491 23.491 23.491h53.624v53.075h-53.624c-12.974 0.01-23.491 10.52-23.491 23.5 0 12.97 10.517 23.49 23.491 23.49h53.624v53.074h-53.624c-12.974 0-23.491 10.52-23.491 23.5 0 12.974 10.517 23.491 23.491 23.491h54.1c4.594 51.932 44.108 93.965 94.856 102.41v56.549c0 12.974 10.517 23.491 23.491 23.491s23.491-10.517 23.491-23.491v-54.974h53.07v54.974c0 12.974 10.518 23.491 23.492 23.491s23.491-10.517 23.491-23.491v-54.974h53.072v54.974c0 12.974 10.517 23.491 23.491 23.491s23.491-10.517 23.491-23.491v-56.545c50.749-8.448 90.261-50.48 94.856-102.41h54.1c12.974 0 23.491-10.517 23.491-23.491s-10.517-23.491-23.491-23.491h-53.624v-53.074h53.622v-0.003zm-91.145 89.922c0 42.238-34.364 76.602-76.607 76.602h-209.5c-42.241 0-76.605-34.362-76.605-76.602v-226.83c0-42.24 34.364-76.604 76.605-76.604h209.5c42.241 0 76.607 34.364 76.607 76.604v226.83z"/>
</svg>
