<svg version="1.1" id="Capa_1" xmlns="http://www.w3.org/2000/svg" xmlns:xlink="http://www.w3.org/1999/xlink" x="0px" y="0px"
	 viewBox="0 0 459.74 459.74" style="enable-background:new 0 0 459.74 459.74;" xml:space="preserve">

			<path d="M131.636,143.669h164.531c13.439,0,24.363-10.925,24.363-24.363V1.034H107.273v118.271
				C107.273,132.744,118.197,143.669,131.636,143.669z"/>

			<path d="M121.37,261.238h99.401c8.471,0,15.325-6.87,15.325-15.325c0-8.456-6.854-15.324-15.325-15.324H121.37
				c-8.47,0-15.325,6.868-15.325,15.324C106.045,254.367,112.9,261.238,121.37,261.238z"/>

			<path d="M121.37,322.535h160.7c8.471,0,15.324-6.869,15.324-15.324c0-8.456-6.854-15.324-15.324-15.324h-160.7
				c-8.47,0-15.325,6.868-15.325,15.324C106.045,315.666,112.9,322.535,121.37,322.535z"/>

			<path d="M343.369,353.186H121.37c-8.47,0-15.325,6.868-15.325,15.325c0,8.454,6.855,15.324,15.325,15.324h221.999
				c8.47,0,15.324-6.87,15.324-15.324C358.693,360.054,351.839,353.186,343.369,353.186z"/>

		<path d="M367.792,1.034H351.18v118.271c0,30.334-24.664,55.013-55.013,55.013H131.636c-30.349,0-55.012-24.679-55.012-55.013
			V1.034h-26.19C22.598,1.034,0,23.616,0,51.481v356.777c0,27.866,22.598,50.449,50.434,50.449h358.873
			c27.864,0,50.434-22.582,50.434-50.449V93.609L367.792,1.034z M390.753,374.032c0,17.046-13.829,30.859-30.859,30.859H97.846
			c-17.032,0-30.859-13.813-30.859-30.859V240.375c0-17.046,13.827-30.872,30.859-30.872h262.048
			c17.03,0,30.859,13.826,30.859,30.872V374.032z M425.259,155.162h-44.058v-44.058h44.058V155.162z"/>

</svg>
