<?xml version="1.0" encoding="utf-8"?>
<!-- Generator: Adobe Illustrator 15.1.0, SVG Export Plug-In . SVG Version: 6.00 Build 0)  -->
<!DOCTYPE svg PUBLIC "-//W3C//DTD SVG 1.1//EN" "http://www.w3.org/Graphics/SVG/1.1/DTD/svg11.dtd">
<svg version="1.1" id="Layer_1" xmlns="http://www.w3.org/2000/svg" xmlns:xlink="http://www.w3.org/1999/xlink" x="0px" y="0px"
	 width="320px" height="320px" viewBox="0 0 320 320" enable-background="new 0 0 320 320" xml:space="preserve">
<g opacity="0.05">
	<g>
		<circle fill="#5399CA" cx="212" cy="211.441" r="178.183"/>
		<path fill="#6BA7D1" d="M212,33.258c98.407,0,178.183,79.776,178.183,178.188c0,98.408-79.771,178.185-178.183,178.185
			S33.816,309.852,33.816,211.441C33.816,113.03,113.593,33.258,212,33.258 M212,5.941c-27.73,0-54.646,5.438-79.999,16.159
			c-24.474,10.353-46.45,25.166-65.312,44.03c-18.865,18.863-33.68,40.839-44.03,65.312C11.937,156.794,6.5,183.711,6.5,211.439
			c0,27.728,5.438,54.646,16.159,80c10.353,24.475,25.166,46.442,44.03,65.312c18.862,18.865,40.838,33.677,65.312,44.031
			c25.354,10.721,52.269,16.159,79.998,16.159s54.646-5.438,80.001-16.159c24.473-10.354,46.445-25.166,65.312-44.031
			c18.86-18.866,33.68-40.839,44.023-65.312c10.727-25.354,16.159-52.271,16.159-80c0-27.729-5.438-54.646-16.163-80
			c-10.349-24.475-25.162-46.449-44.027-65.313c-18.86-18.863-40.842-33.677-65.312-44.028C266.645,11.379,239.729,5.941,212,5.941
			L212,5.941z"/>
	</g>
	<g>
		<path fill="#FFFFFF" d="M212.09,219.913c-46.667,0-84.634-37.968-84.634-84.634c0-46.668,37.967-84.634,84.634-84.634
			c46.664,0,84.631,37.966,84.631,84.634C296.725,181.945,258.757,219.913,212.09,219.913z M212.09,55.612
			c-43.927,0-79.665,35.742-79.665,79.667c0,43.928,35.738,79.663,79.665,79.663c43.924,0,79.662-35.731,79.662-79.663
			C291.754,91.354,256.018,55.612,212.09,55.612z"/>
		<path fill="#FFFFFF" d="M212.09,371.227c-46.667,0-84.634-37.968-84.634-84.633c0-46.666,37.967-84.637,84.634-84.637
			c46.664,0,84.631,37.971,84.631,84.637C296.725,333.259,258.757,371.227,212.09,371.227z M212.09,206.93
			c-43.927,0-79.665,35.735-79.665,79.664c0,43.926,35.738,79.663,79.665,79.663c43.924,0,79.662-35.735,79.662-79.663
			C291.754,242.665,256.018,206.93,212.09,206.93z"/>
		<path fill="#FFFFFF" d="M287.743,295.568c-46.665,0-84.629-37.967-84.629-84.627c0-46.668,37.961-84.631,84.629-84.631
			c46.666,0,84.635,37.963,84.635,84.631C372.38,257.604,334.413,295.568,287.743,295.568z M287.743,131.273
			c-43.925,0-79.659,35.735-79.659,79.665c0,43.924,35.738,79.658,79.659,79.658c43.927,0,79.669-35.734,79.669-79.658
			C367.413,167.012,331.675,131.273,287.743,131.273z"/>
		<path fill="#FFFFFF" d="M136.434,295.568c-46.668,0-84.634-37.967-84.634-84.627c0-46.668,37.966-84.631,84.634-84.631
			c46.666,0,84.632,37.963,84.632,84.631C221.064,257.604,183.1,295.568,136.434,295.568z M136.434,131.273
			c-43.928,0-79.664,35.735-79.664,79.665c0,43.924,35.736,79.658,79.664,79.658c43.923,0,79.664-35.734,79.664-79.658
			C216.098,167.012,180.355,131.273,136.434,131.273z"/>
	</g>
	<g>
		<path fill="#FFFFFF" d="M265.587,242.07c-22.608,0-43.86-8.807-59.849-24.791c-15.987-15.984-24.791-37.238-24.791-59.844
			c0-22.604,8.804-43.854,24.791-59.84c15.988-15.99,37.246-24.796,59.853-24.796c22.604,0,43.855,8.804,59.841,24.79
			c15.988,15.985,24.791,37.24,24.791,59.846c0,22.607-8.806,43.861-24.794,59.847C309.443,233.266,288.189,242.07,265.587,242.07z
			 M265.591,77.77c-21.278,0-41.286,8.291-56.336,23.34c-15.046,15.047-23.333,35.053-23.333,56.33
			c0,21.274,8.287,41.281,23.333,56.328c15.047,15.049,35.054,23.334,56.332,23.334c21.274,0,41.28-8.285,56.329-23.334
			c15.043-15.047,23.335-35.053,23.335-56.33c0-21.278-8.289-41.283-23.334-56.332C306.87,86.057,286.868,77.77,265.591,77.77z"/>
		<path fill="#FFFFFF" d="M158.592,349.066c-22.605,0-43.859-8.81-59.844-24.791c-33.001-32.996-33.001-86.688,0-119.688
			c15.986-15.983,37.242-24.794,59.848-24.794c22.604,0,43.858,8.807,59.845,24.794c15.981,15.981,24.789,37.238,24.789,59.843
			c0,22.605-8.809,43.858-24.793,59.848C202.449,340.266,181.199,349.066,158.592,349.066z M158.596,184.768
			c-21.277,0-41.281,8.287-56.334,23.334c-31.061,31.063-31.061,81.604,0,112.662c15.049,15.043,35.055,23.336,56.33,23.336
			c21.277,0,41.284-8.293,56.33-23.336c15.046-15.048,23.336-35.054,23.336-56.334c0-21.275-8.287-41.281-23.336-56.332
			C199.875,193.055,179.872,184.768,158.596,184.768z"/>
		<path fill="#FFFFFF" d="M265.588,349.07c-22.609,0-43.863-8.812-59.85-24.797c-32.994-32.996-32.994-86.688,0-119.688
			c15.984-15.981,37.24-24.793,59.849-24.793c22.603,0,43.856,8.808,59.842,24.793c15.988,15.983,24.794,37.241,24.794,59.847
			c0.002,22.604-8.803,43.855-24.791,59.846C309.445,340.266,288.193,349.07,265.588,349.07z M265.587,184.768
			c-21.278,0-41.285,8.289-56.332,23.334c-31.062,31.063-31.062,81.604,0,112.662c15.047,15.043,35.056,23.336,56.333,23.336
			c21.276,0,41.282-8.293,56.328-23.336c15.046-15.045,23.335-35.051,23.335-56.33c0-21.272-8.292-41.281-23.337-56.332
			C306.867,193.057,286.863,184.768,265.587,184.768z"/>
		<path fill="#FFFFFF" d="M158.594,242.072c-22.605,0-43.861-8.809-59.849-24.793c-33.001-32.997-33.001-86.688,0-119.684
			C114.732,81.607,135.982,72.8,158.589,72.8c22.606,0,43.861,8.808,59.849,24.796c32.998,32.996,32.998,86.688,0.002,119.687
			C202.451,233.27,181.199,242.072,158.594,242.072z M158.589,77.773c-21.272,0-41.278,8.285-56.329,23.332
			c-31.061,31.062-31.061,81.601,0,112.659c15.051,15.049,35.057,23.338,56.334,23.338c21.278,0,41.283-8.285,56.328-23.334
			c31.062-31.062,31.062-81.601-0.003-112.663C199.872,86.061,179.866,77.773,158.589,77.773z"/>
	</g>
	<g>
		<path fill="#5399CA" d="M149.593,210.614c0-34.335,27.828-62.167,62.169-62.167c34.336,0,62.17,27.829,62.17,62.167
			c0,34.343-27.83,62.173-62.17,62.173C177.424,272.783,149.593,244.953,149.593,210.614z"/>
		<path fill="#FFFFFF" d="M211.762,275.314c-35.676,0-64.697-29.026-64.697-64.703c0-35.674,29.021-64.697,64.697-64.697
			s64.698,29.023,64.698,64.697C276.46,246.291,247.438,275.314,211.762,275.314z M211.762,150.977
			c-32.885,0-59.638,26.753-59.638,59.639s26.753,59.641,59.638,59.641c32.887,0,59.641-26.755,59.641-59.641
			S244.646,150.977,211.762,150.977z"/>
	</g>
	<path fill="#FFFFFF" d="M228.012,241.876c-17.281,0-31.293-14.012-31.293-31.294s14.012-31.298,31.293-31.298
		c2.586,0,5.096,0.319,7.496,0.911c-6.043-4.256-13.408-6.766-21.369-6.766c-20.521,0-37.152,16.631-37.152,37.147
		s16.639,37.147,37.152,37.147c7.961,0,15.326-2.512,21.369-6.769C233.104,241.559,230.594,241.876,228.012,241.876z"/>
</g>
<g opacity="0.6">
	<g>
		<g>
			<path fill="#5399CA" d="M230.017,297c0,0-0.95-0.357-2.295-0.357c-2.42,0-3.767,1.793-3.767,5.107c0,3.229,1.613,4.66,3.854,4.66
				c1.884,0,3.587-1.436,3.587-1.436l0.717,1.166c0,0-1.792,1.882-4.479,1.882c-3.587,0-5.736-2.149-5.736-6.185
				c0-4.123,2.33-6.724,6.005-6.724c1.972,0,4.032,0.896,4.032,0.896l-0.09,3.049h-1.345L230.017,297z"/>
			<path fill="#5399CA" d="M233.419,306.77l1.522-0.357v-9.681l-1.522-0.358v-0.982l5.107-0.092v1.074l-1.703,0.358v3.942h6.005
				v-3.942l-1.702-0.358v-0.982l5.108-0.092v1.074l-1.522,0.358v9.681l1.522,0.357v1.074h-5.108v-1.074l1.702-0.357v-4.303h-6.005
				v4.303l1.703,0.357v1.074h-5.107V306.77z"/>
			<path fill="#5399CA" d="M247.728,306.77l1.522-0.357v-9.681l-1.522-0.358v-0.982l4.931-0.092v1.074l-1.521,0.358v9.681
				l1.521,0.357v1.074h-4.93L247.728,306.77L247.728,306.77z"/>
			<path fill="#5399CA" d="M265.235,297.449l-0.538,1.344l-2.778,5.646l-1.435,0.09l-2.778-5.826l-0.447-1.254v8.963l1.703,0.357
				v1.074h-4.841v-1.074l1.522-0.357v-9.681l-1.522-0.358v-0.982l4.033-0.09l3.244,7.17l3.389-7.08l3.766-0.09v1.072l-1.522,0.359
				v9.68l1.522,0.357v1.074h-5.021v-1.074l1.702-0.357L265.235,297.449L265.235,297.449z"/>
			<path fill="#5399CA" d="M277.612,300.584v1.436h-4.122v4.394h4.122l0.359-1.793h1.164v3.228h-9.055v-1.074l1.524-0.357v-9.681
				l-1.524-0.356v-0.984l3.406-0.09h5.467v3.045h-1.165l-0.447-1.61h-3.854v3.854L277.612,300.584L277.612,300.584z"/>
			<path fill="#5399CA" d="M282.255,296.731l-1.521-0.358v-0.984l3.405-0.09h1.973c2.525,0,4.031,1.219,4.031,3.228
				c0,1.737-0.786,2.924-2.328,3.495c0.285,0.25,0.607,0.718,1.074,1.613l1.416,2.851l1.271,0.286v1.074h-2.688l-1.522-3.313
				c-0.842-1.793-1.234-2.149-2.419-2.149h-0.809v4.032l1.521,0.356v1.076h-4.93v-1.076l1.523-0.356L282.255,296.731
				L282.255,296.731z M285.481,301.033c1.757,0,2.776-0.824,2.776-2.24c0-1.199-0.934-2.062-2.239-2.062h-1.883v4.302H285.481
				L285.481,301.033z"/>
			<path fill="#5399CA" d="M298.012,295.387l1.793-0.09l3.979,11.133l1.487,0.34v1.076h-5.198v-1.076l1.667-0.34l-0.682-1.989
				h-4.661l-0.699,1.989l1.686,0.34v1.076h-4.931v-1.076l1.471-0.34L298.012,295.387z M298.765,297.609l-1.885,5.396h3.692
				L298.765,297.609z"/>
		</g>
	</g>
</g>
</svg>
