<?xml version="1.0" encoding="utf-8"?>
<!-- Generator: Adobe Illustrator 15.1.0, SVG Export Plug-In . SVG Version: 6.00 Build 0)  -->
<!DOCTYPE svg PUBLIC "-//W3C//DTD SVG 1.1//EN" "http://www.w3.org/Graphics/SVG/1.1/DTD/svg11.dtd">
<svg version="1.1" id="Layer_1" xmlns="http://www.w3.org/2000/svg" xmlns:xlink="http://www.w3.org/1999/xlink" x="0px" y="0px"
	 width="320px" height="90px" viewBox="0 230 320 90" enable-background="new 0 230 320 90" xml:space="preserve">
<g>
	<g>
		<g>
			<path fill="#5399CA" d="M142.56,263.938c0,0-2.203-0.831-5.321-0.831c-5.612,0-8.729,4.156-8.729,11.847
				c0,7.483,3.741,10.81,8.938,10.81c4.365,0,8.315-3.326,8.315-3.326l1.663,2.703c0,0-4.157,4.364-10.393,4.364
				c-8.315,0-13.304-4.988-13.304-14.342c0-9.562,5.405-15.59,13.927-15.59c4.573,0,9.353,2.078,9.353,2.078l-0.207,7.068h-3.118
				L142.56,263.938z"/>
			<path fill="#5399CA" d="M150.448,286.594l3.534-0.831v-22.448l-3.534-0.832v-2.286l11.848-0.208v2.494l-3.949,0.832v9.145h13.927
				v-9.145l-3.949-0.832v-2.286l11.848-0.208v2.494l-3.533,0.832v22.448l3.533,0.831v2.494h-11.848v-2.494l3.949-0.831v-9.978
				h-13.927v9.978l3.949,0.831v2.494h-11.848V286.594z"/>
			<path fill="#5399CA" d="M183.637,286.594l3.533-0.831v-22.448l-3.533-0.832v-2.286l11.433-0.208v2.494l-3.534,0.832v22.448
				l3.534,0.831v2.494h-11.433V286.594z"/>
			<path fill="#5399CA" d="M224.238,264.977l-1.247,3.118l-6.444,13.095l-3.326,0.208l-6.443-13.511l-1.039-2.91v20.786l3.949,0.831
				v2.494h-11.225v-2.494l3.534-0.831v-22.448l-3.534-0.832v-2.286l9.354-0.208l7.524,16.629l7.857-16.421l8.729-0.208v2.494
				l-3.532,0.832v22.448l3.532,0.831v2.494h-11.639v-2.494l3.949-0.831V264.977z"/>
			<path fill="#5399CA" d="M252.943,272.252v3.325h-9.561v10.186h9.561l0.833-4.157h2.701v7.482h-20.994v-2.494l3.534-0.831v-22.448
				l-3.534-0.832v-2.286l7.899-0.208h12.679v7.066h-2.701l-1.04-3.74h-8.938v8.938H252.943z"/>
			<path fill="#5399CA" d="M263.709,263.314l-3.534-0.832v-2.286l7.899-0.208h4.572c5.861,0,9.354,2.826,9.354,7.482
				c0,4.032-1.828,6.776-5.404,8.106c0.665,0.582,1.414,1.663,2.495,3.741l3.284,6.61l2.951,0.665v2.494h-6.235l-3.534-7.69
				c-1.953-4.157-2.868-4.988-5.612-4.988h-1.87v9.354l3.533,0.831v2.494h-11.433v-2.494l3.534-0.831V263.314z M271.191,273.291
				c4.074,0,6.443-1.912,6.443-5.196c0-2.785-2.161-4.78-5.195-4.78h-4.365v9.977H271.191z"/>
			<path fill="#5399CA" d="M300.252,260.196l4.157-0.208l9.229,25.815l3.45,0.79v2.494h-12.056v-2.494l3.866-0.79l-1.58-4.614
				h-10.81l-1.621,4.614l3.908,0.79v2.494h-11.433v-2.494l3.409-0.79L300.252,260.196z M301.998,265.352l-4.365,12.513h8.563
				L301.998,265.352z"/>
		</g>
	</g>
	<g>
		<path fill="#5399CA" d="M40.274,237.838c-20.357,0-36.919,16.562-36.919,36.92s16.562,36.919,36.919,36.919
			s36.919-16.562,36.919-36.919S60.631,237.838,40.274,237.838z"/>
		<path fill="#FFFFFF" d="M49.546,292.596c-9.863,0-17.858-7.994-17.858-17.857c0-9.862,7.995-17.858,17.858-17.858
			c1.474,0,2.906,0.184,4.276,0.52c-3.449-2.429-7.653-3.861-12.192-3.861c-11.709,0-21.202,9.491-21.202,21.2
			s9.492,21.201,21.202,21.201c4.54,0,8.744-1.432,12.192-3.861C52.452,292.415,51.02,292.596,49.546,292.596z"/>
	</g>
</g>
</svg>
