<?xml version="1.0" encoding="utf-8"?>
<!-- Generator: Adobe Illustrator 15.1.0, SVG Export Plug-In . SVG Version: 6.00 Build 0)  -->
<!DOCTYPE svg PUBLIC "-//W3C//DTD SVG 1.1//EN" "http://www.w3.org/Graphics/SVG/1.1/DTD/svg11.dtd">
<svg version="1.1" id="Layer_1" xmlns="http://www.w3.org/2000/svg" xmlns:xlink="http://www.w3.org/1999/xlink" x="0px" y="0px"
	 width="160px" height="85px" viewBox="0 0 160 85" enable-background="new 0 0 160 85" xml:space="preserve">
<polygon fill="#28F0C8" points="-76.355,239.387 273.492,-110.462 272.129,-110.462 -77.72,239.387 "/>
<g>
	<g>
		<path fill="#FFFFFF" d="M27.105,67.529l2.323-2.322c-0.787-0.859-1.247-2.051-1.247-3.354V61.81c0-2.565,1.817-4.661,4.343-4.661
			c1.368,0,2.47,0.537,3.531,1.431l2.272-2.272c-1.368-1.307-3.04-2.195-5.783-2.195c-4.599,0-7.807,3.485-7.807,7.741v0.043
			C24.738,64.137,25.628,66.132,27.105,67.529z"/>
	</g>
	<path fill="#FFFFFF" d="M50.162,54.367h5.839c4.705,0,7.956,3.229,7.956,7.442v0.043c0,4.214-3.251,7.485-7.956,7.485h-5.839
		V54.367z M53.456,57.34v9.025h2.545c2.694,0,4.513-1.818,4.513-4.47v-0.043c0-2.651-1.819-4.513-4.513-4.513H53.456z"/>
	<path fill="#FFFFFF" d="M65.762,54.367h11.292v2.93h-8.02v3.037h7.058v2.93h-7.058v3.145h8.127v2.93H65.762V54.367z"/>
	<path fill="#FFFFFF" d="M110.383,54.285l-3.033,3.031c0.391-0.106,0.805-0.168,1.242-0.168c2.65,0,4.533,2.139,4.533,4.704v0.043
		c0,2.565-1.838,4.663-4.49,4.663s-4.535-2.141-4.535-4.706V61.81c0-0.507,0.074-0.995,0.211-1.454l-3.428,3.428
		c0.82,3.342,3.797,5.811,7.709,5.811c4.619,0,7.977-3.484,7.977-7.741V61.81C116.568,58.113,114.068,55.031,110.383,54.285z"/>
	<path fill="#FFFFFF" d="M118.375,54.367h6.844c1.904,0,3.379,0.535,4.363,1.518c0.834,0.835,1.283,2.012,1.283,3.423v0.043
		c0,2.417-1.305,3.935-3.209,4.641l3.658,5.347h-3.85l-3.209-4.791h-2.586v4.791h-3.295V54.367z M125.004,61.639
		c1.605,0,2.525-0.855,2.525-2.117v-0.043c0-1.412-0.984-2.139-2.59-2.139h-3.27v4.299H125.004z"/>
	<path fill="#FFFFFF" d="M93.629,66.21c-0.4,0.099-0.828,0.155-1.281,0.155h-2.547V57.34h2.547c2.693,0,4.512,1.861,4.512,4.513
		v0.043c0,0.437-0.054,0.847-0.147,1.232l3.327-3.327c-0.859-3.188-3.77-5.434-7.691-5.434h-5.84v14.971h3.994L93.629,66.21z"/>
	<path fill="#FFFFFF" d="M42.171,54.285l-3.033,3.031c0.39-0.106,0.803-0.168,1.241-0.168c2.652,0,4.535,2.139,4.535,4.704v0.043
		c0,2.565-1.839,4.663-4.492,4.663c-2.652,0-4.534-2.141-4.534-4.706V61.81c0-0.507,0.074-0.995,0.21-1.454l-3.427,3.428
		c0.819,3.342,3.796,5.811,7.708,5.811c4.62,0,7.978-3.484,7.978-7.741V61.81C48.357,58.113,45.855,55.031,42.171,54.285z"/>
</g>
</svg>
